<mxfile host="app.diagrams.net" modified="2022-03-17T07:51:43.915Z" agent="5.0 (Windows NT 10.0; WOW64) AppleWebKit/537.36 (KHTML, like Gecko) Chrome/99.0.4844.51 Safari/537.36" etag="GmOr6cRx8BAwJ3XkXINf" version="17.1.3" type="github">
  <diagram id="OyRcTyBlNtmZmaSBtb3-" name="Page-1">
    <mxGraphModel dx="835" dy="325" grid="1" gridSize="10" guides="1" tooltips="1" connect="1" arrows="1" fold="1" page="1" pageScale="1" pageWidth="827" pageHeight="1169" math="0" shadow="0">
      <root>
        <mxCell id="0" />
        <mxCell id="1" parent="0" />
        <mxCell id="z1wBFRxJV2j2c12fdlnA-1" value="" style="shape=table;childLayout=tableLayout;fixedRows=1;rounded=0;whiteSpace=wrap;html=1;startSize=0;" parent="1" vertex="1">
          <mxGeometry x="480" y="27.5" width="115" height="55" as="geometry" />
        </mxCell>
        <mxCell id="bO-Ev2rAPcP5Glvwb2sy-28" value="" style="shape=tableRow;horizontal=0;startSize=0;swimlaneHead=0;swimlaneBody=0;fillColor=none;collapsible=0;dropTarget=0;points=[[0,0.5],[1,0.5]];portConstraint=eastwest;top=0;left=0;right=0;bottom=1;" vertex="1" parent="z1wBFRxJV2j2c12fdlnA-1">
          <mxGeometry width="115" height="30" as="geometry" />
        </mxCell>
        <mxCell id="bO-Ev2rAPcP5Glvwb2sy-29" value="PK" style="shape=partialRectangle;connectable=0;fillColor=none;top=0;left=0;bottom=0;right=0;fontStyle=1;overflow=hidden;" vertex="1" parent="bO-Ev2rAPcP5Glvwb2sy-28">
          <mxGeometry width="19" height="30" as="geometry">
            <mxRectangle width="19" height="30" as="alternateBounds" />
          </mxGeometry>
        </mxCell>
        <mxCell id="bO-Ev2rAPcP5Glvwb2sy-30" value="серия-номер&#xa;паспорта" style="shape=partialRectangle;connectable=0;fillColor=none;top=0;left=0;bottom=0;right=0;align=left;spacingLeft=6;fontStyle=5;overflow=hidden;" vertex="1" parent="bO-Ev2rAPcP5Glvwb2sy-28">
          <mxGeometry x="19" width="96" height="30" as="geometry">
            <mxRectangle width="96" height="30" as="alternateBounds" />
          </mxGeometry>
        </mxCell>
        <mxCell id="z1wBFRxJV2j2c12fdlnA-2" value="E1/Читатель" style="text;html=1;align=center;verticalAlign=middle;resizable=0;points=[];autosize=1;strokeColor=none;fillColor=none;" parent="1" vertex="1">
          <mxGeometry x="492.5" y="7.5" width="90" height="20" as="geometry" />
        </mxCell>
        <mxCell id="z1wBFRxJV2j2c12fdlnA-4" value="E2/Читательский&lt;br&gt;билет" style="text;html=1;align=center;verticalAlign=middle;resizable=0;points=[];autosize=1;strokeColor=none;fillColor=none;" parent="1" vertex="1">
          <mxGeometry x="275" y="50" width="110" height="30" as="geometry" />
        </mxCell>
        <mxCell id="z1wBFRxJV2j2c12fdlnA-5" value="" style="rounded=0;whiteSpace=wrap;html=1;" parent="1" vertex="1">
          <mxGeometry x="55" y="430" width="120" height="60" as="geometry" />
        </mxCell>
        <mxCell id="z1wBFRxJV2j2c12fdlnA-6" value="E3/Автор" style="text;html=1;align=center;verticalAlign=middle;resizable=0;points=[];autosize=1;strokeColor=none;fillColor=none;" parent="1" vertex="1">
          <mxGeometry x="80" y="410" width="70" height="20" as="geometry" />
        </mxCell>
        <mxCell id="z1wBFRxJV2j2c12fdlnA-7" value="" style="shape=table;childLayout=tableLayout;fixedRows=1;rounded=0;whiteSpace=wrap;html=1;startSize=0;" parent="1" vertex="1">
          <mxGeometry x="525" y="320" width="125" height="120" as="geometry" />
        </mxCell>
        <mxCell id="bO-Ev2rAPcP5Glvwb2sy-55" value="" style="shape=tableRow;horizontal=0;startSize=0;swimlaneHead=0;swimlaneBody=0;fillColor=none;collapsible=0;dropTarget=0;points=[[0,0.5],[1,0.5]];portConstraint=eastwest;top=0;left=0;right=0;bottom=1;" vertex="1" parent="z1wBFRxJV2j2c12fdlnA-7">
          <mxGeometry width="125" height="30" as="geometry" />
        </mxCell>
        <mxCell id="bO-Ev2rAPcP5Glvwb2sy-56" value="PK" style="shape=partialRectangle;connectable=0;fillColor=none;top=0;left=0;bottom=0;right=0;fontStyle=1;overflow=hidden;" vertex="1" parent="bO-Ev2rAPcP5Glvwb2sy-55">
          <mxGeometry width="21" height="30" as="geometry">
            <mxRectangle width="21" height="30" as="alternateBounds" />
          </mxGeometry>
        </mxCell>
        <mxCell id="bO-Ev2rAPcP5Glvwb2sy-57" value="номер рубрики" style="shape=partialRectangle;connectable=0;fillColor=none;top=0;left=0;bottom=0;right=0;align=left;spacingLeft=6;fontStyle=5;overflow=hidden;" vertex="1" parent="bO-Ev2rAPcP5Glvwb2sy-55">
          <mxGeometry x="21" width="104" height="30" as="geometry">
            <mxRectangle width="104" height="30" as="alternateBounds" />
          </mxGeometry>
        </mxCell>
        <mxCell id="bO-Ev2rAPcP5Glvwb2sy-58" value="" style="shape=tableRow;horizontal=0;startSize=0;swimlaneHead=0;swimlaneBody=0;fillColor=none;collapsible=0;dropTarget=0;points=[[0,0.5],[1,0.5]];portConstraint=eastwest;top=0;left=0;right=0;bottom=0;" vertex="1" parent="z1wBFRxJV2j2c12fdlnA-7">
          <mxGeometry y="30" width="125" height="30" as="geometry" />
        </mxCell>
        <mxCell id="bO-Ev2rAPcP5Glvwb2sy-59" value="FK" style="shape=partialRectangle;connectable=0;fillColor=none;top=0;left=0;bottom=0;right=0;fontStyle=0;overflow=hidden;" vertex="1" parent="bO-Ev2rAPcP5Glvwb2sy-58">
          <mxGeometry width="21" height="30" as="geometry">
            <mxRectangle width="21" height="30" as="alternateBounds" />
          </mxGeometry>
        </mxCell>
        <mxCell id="bO-Ev2rAPcP5Glvwb2sy-60" value="номер&#xa;надкатегории" style="shape=partialRectangle;connectable=0;fillColor=none;top=0;left=0;bottom=0;right=0;align=left;spacingLeft=6;fontStyle=0;overflow=hidden;" vertex="1" parent="bO-Ev2rAPcP5Glvwb2sy-58">
          <mxGeometry x="21" width="104" height="30" as="geometry">
            <mxRectangle width="104" height="30" as="alternateBounds" />
          </mxGeometry>
        </mxCell>
        <mxCell id="z1wBFRxJV2j2c12fdlnA-8" value="E4/Раздел (рубрика)" style="text;html=1;align=center;verticalAlign=middle;resizable=0;points=[];autosize=1;strokeColor=none;fillColor=none;" parent="1" vertex="1">
          <mxGeometry x="520" y="300" width="130" height="20" as="geometry" />
        </mxCell>
        <mxCell id="z1wBFRxJV2j2c12fdlnA-9" value="" style="rounded=0;whiteSpace=wrap;html=1;" parent="1" vertex="1">
          <mxGeometry x="395" y="470" width="119" height="60" as="geometry" />
        </mxCell>
        <mxCell id="z1wBFRxJV2j2c12fdlnA-10" value="E5/Издательство" style="text;html=1;align=center;verticalAlign=middle;resizable=0;points=[];autosize=1;strokeColor=none;fillColor=none;" parent="1" vertex="1">
          <mxGeometry x="399" y="450" width="110" height="20" as="geometry" />
        </mxCell>
        <mxCell id="z1wBFRxJV2j2c12fdlnA-13" value="" style="rounded=0;whiteSpace=wrap;html=1;" parent="1" vertex="1">
          <mxGeometry x="310" y="230" width="115" height="60" as="geometry" />
        </mxCell>
        <mxCell id="z1wBFRxJV2j2c12fdlnA-14" value="E7/Запрос на книги" style="text;html=1;align=center;verticalAlign=middle;resizable=0;points=[];autosize=1;strokeColor=none;fillColor=none;" parent="1" vertex="1">
          <mxGeometry x="305" y="210" width="120" height="20" as="geometry" />
        </mxCell>
        <mxCell id="z1wBFRxJV2j2c12fdlnA-15" value="" style="rounded=0;whiteSpace=wrap;html=1;" parent="1" vertex="1">
          <mxGeometry x="50" y="230" width="120" height="60" as="geometry" />
        </mxCell>
        <mxCell id="z1wBFRxJV2j2c12fdlnA-16" value="E8/Выданная книга" style="text;html=1;align=center;verticalAlign=middle;resizable=0;points=[];autosize=1;strokeColor=none;fillColor=none;" parent="1" vertex="1">
          <mxGeometry x="50" y="210" width="120" height="20" as="geometry" />
        </mxCell>
        <mxCell id="z1wBFRxJV2j2c12fdlnA-17" value="" style="shape=table;childLayout=tableLayout;fixedRows=1;rounded=0;whiteSpace=wrap;html=1;startSize=0;" parent="1" vertex="1">
          <mxGeometry x="590" y="210" width="140" height="70" as="geometry" />
        </mxCell>
        <mxCell id="bO-Ev2rAPcP5Glvwb2sy-41" value="" style="shape=tableRow;horizontal=0;startSize=0;swimlaneHead=0;swimlaneBody=0;fillColor=none;collapsible=0;dropTarget=0;points=[[0,0.5],[1,0.5]];portConstraint=eastwest;top=0;left=0;right=0;bottom=1;" vertex="1" parent="z1wBFRxJV2j2c12fdlnA-17">
          <mxGeometry width="140" height="30" as="geometry" />
        </mxCell>
        <mxCell id="bO-Ev2rAPcP5Glvwb2sy-42" value="PK" style="shape=partialRectangle;connectable=0;fillColor=none;top=0;left=0;bottom=0;right=0;fontStyle=1;overflow=hidden;" vertex="1" parent="bO-Ev2rAPcP5Glvwb2sy-41">
          <mxGeometry width="24" height="30" as="geometry">
            <mxRectangle width="24" height="30" as="alternateBounds" />
          </mxGeometry>
        </mxCell>
        <mxCell id="bO-Ev2rAPcP5Glvwb2sy-43" value="Номер документа&#xa;отказа" style="shape=partialRectangle;connectable=0;fillColor=none;top=0;left=0;bottom=0;right=0;align=left;spacingLeft=6;fontStyle=5;overflow=hidden;" vertex="1" parent="bO-Ev2rAPcP5Glvwb2sy-41">
          <mxGeometry x="24" width="116" height="30" as="geometry">
            <mxRectangle width="116" height="30" as="alternateBounds" />
          </mxGeometry>
        </mxCell>
        <mxCell id="bO-Ev2rAPcP5Glvwb2sy-52" value="" style="shape=tableRow;horizontal=0;startSize=0;swimlaneHead=0;swimlaneBody=0;fillColor=none;collapsible=0;dropTarget=0;points=[[0,0.5],[1,0.5]];portConstraint=eastwest;top=0;left=0;right=0;bottom=0;" vertex="1" parent="z1wBFRxJV2j2c12fdlnA-17">
          <mxGeometry y="30" width="140" height="30" as="geometry" />
        </mxCell>
        <mxCell id="bO-Ev2rAPcP5Glvwb2sy-53" value="FK" style="shape=partialRectangle;connectable=0;fillColor=none;top=0;left=0;bottom=0;right=0;fontStyle=0;overflow=hidden;" vertex="1" parent="bO-Ev2rAPcP5Glvwb2sy-52">
          <mxGeometry width="24" height="30" as="geometry">
            <mxRectangle width="24" height="30" as="alternateBounds" />
          </mxGeometry>
        </mxCell>
        <mxCell id="bO-Ev2rAPcP5Glvwb2sy-54" value="Номер запроса&#xa;соответствующий" style="shape=partialRectangle;connectable=0;fillColor=none;top=0;left=0;bottom=0;right=0;align=left;spacingLeft=6;fontStyle=0;overflow=hidden;" vertex="1" parent="bO-Ev2rAPcP5Glvwb2sy-52">
          <mxGeometry x="24" width="116" height="30" as="geometry">
            <mxRectangle width="116" height="30" as="alternateBounds" />
          </mxGeometry>
        </mxCell>
        <mxCell id="z1wBFRxJV2j2c12fdlnA-18" value="E9/Отказ" style="text;html=1;align=center;verticalAlign=middle;resizable=0;points=[];autosize=1;strokeColor=none;fillColor=none;" parent="1" vertex="1">
          <mxGeometry x="615" y="190" width="70" height="20" as="geometry" />
        </mxCell>
        <mxCell id="z1wBFRxJV2j2c12fdlnA-19" value="" style="shape=table;childLayout=tableLayout;fixedRows=1;rounded=1;whiteSpace=wrap;html=1;startSize=0;" parent="1" vertex="1">
          <mxGeometry x="270" y="80" width="120" height="80" as="geometry" />
        </mxCell>
        <mxCell id="bO-Ev2rAPcP5Glvwb2sy-32" value="" style="shape=tableRow;horizontal=0;startSize=0;swimlaneHead=0;swimlaneBody=0;fillColor=none;collapsible=0;dropTarget=0;points=[[0,0.5],[1,0.5]];portConstraint=eastwest;top=0;left=0;right=0;bottom=1;" vertex="1" parent="z1wBFRxJV2j2c12fdlnA-19">
          <mxGeometry width="120" height="30" as="geometry" />
        </mxCell>
        <mxCell id="bO-Ev2rAPcP5Glvwb2sy-33" value="PK" style="shape=partialRectangle;connectable=0;fillColor=none;top=0;left=0;bottom=0;right=0;fontStyle=1;overflow=hidden;" vertex="1" parent="bO-Ev2rAPcP5Glvwb2sy-32">
          <mxGeometry width="20" height="30" as="geometry">
            <mxRectangle width="20" height="30" as="alternateBounds" />
          </mxGeometry>
        </mxCell>
        <mxCell id="bO-Ev2rAPcP5Glvwb2sy-34" value="номер билета" style="shape=partialRectangle;connectable=0;fillColor=none;top=0;left=0;bottom=0;right=0;align=left;spacingLeft=6;fontStyle=5;overflow=hidden;" vertex="1" parent="bO-Ev2rAPcP5Glvwb2sy-32">
          <mxGeometry x="20" width="100" height="30" as="geometry">
            <mxRectangle width="100" height="30" as="alternateBounds" />
          </mxGeometry>
        </mxCell>
        <mxCell id="bO-Ev2rAPcP5Glvwb2sy-35" value="" style="shape=tableRow;horizontal=0;startSize=0;swimlaneHead=0;swimlaneBody=0;fillColor=none;collapsible=0;dropTarget=0;points=[[0,0.5],[1,0.5]];portConstraint=eastwest;top=0;left=0;right=0;bottom=1;" vertex="1" parent="z1wBFRxJV2j2c12fdlnA-19">
          <mxGeometry y="30" width="120" height="50" as="geometry" />
        </mxCell>
        <mxCell id="bO-Ev2rAPcP5Glvwb2sy-36" value="FK" style="shape=partialRectangle;connectable=0;fillColor=none;top=0;left=0;bottom=0;right=0;fontStyle=1;overflow=hidden;" vertex="1" parent="bO-Ev2rAPcP5Glvwb2sy-35">
          <mxGeometry width="20" height="50" as="geometry">
            <mxRectangle width="20" height="50" as="alternateBounds" />
          </mxGeometry>
        </mxCell>
        <mxCell id="bO-Ev2rAPcP5Glvwb2sy-37" value="серия-номер&#xa;паспорта&#xa;владельца" style="shape=partialRectangle;connectable=0;fillColor=none;top=0;left=0;bottom=0;right=0;align=left;spacingLeft=6;fontStyle=5;overflow=hidden;" vertex="1" parent="bO-Ev2rAPcP5Glvwb2sy-35">
          <mxGeometry x="20" width="100" height="50" as="geometry">
            <mxRectangle width="100" height="50" as="alternateBounds" />
          </mxGeometry>
        </mxCell>
        <mxCell id="z1wBFRxJV2j2c12fdlnA-20" value="" style="endArrow=none;html=1;rounded=0;exitX=1.007;exitY=0.368;exitDx=0;exitDy=0;exitPerimeter=0;" parent="1" source="bO-Ev2rAPcP5Glvwb2sy-35" edge="1">
          <mxGeometry width="50" height="50" relative="1" as="geometry">
            <mxPoint x="400" y="130" as="sourcePoint" />
            <mxPoint x="480" y="70" as="targetPoint" />
            <Array as="points">
              <mxPoint x="440" y="130" />
              <mxPoint x="440" y="70" />
            </Array>
          </mxGeometry>
        </mxCell>
        <mxCell id="z1wBFRxJV2j2c12fdlnA-21" value="Соответствует/&lt;br&gt;Имеет" style="text;html=1;align=center;verticalAlign=middle;resizable=0;points=[];autosize=1;strokeColor=none;fillColor=none;" parent="1" vertex="1">
          <mxGeometry x="390" y="90" width="100" height="30" as="geometry" />
        </mxCell>
        <mxCell id="z1wBFRxJV2j2c12fdlnA-23" value="" style="rounded=0;whiteSpace=wrap;html=1;" parent="1" vertex="1">
          <mxGeometry x="255" y="350" width="120" height="60" as="geometry" />
        </mxCell>
        <mxCell id="z1wBFRxJV2j2c12fdlnA-24" value="E6/Издание (Книга)" style="text;html=1;align=center;verticalAlign=middle;resizable=0;points=[];autosize=1;strokeColor=none;fillColor=none;" parent="1" vertex="1">
          <mxGeometry x="255" y="330" width="120" height="20" as="geometry" />
        </mxCell>
        <mxCell id="z1wBFRxJV2j2c12fdlnA-27" value="" style="endArrow=none;html=1;rounded=0;dashed=1;exitX=0.465;exitY=0.61;exitDx=0;exitDy=0;entryX=0;entryY=0.5;entryDx=0;entryDy=0;exitPerimeter=0;" parent="1" source="z1wBFRxJV2j2c12fdlnA-28" target="z1wBFRxJV2j2c12fdlnA-7" edge="1">
          <mxGeometry relative="1" as="geometry">
            <mxPoint x="315" y="460" as="sourcePoint" />
            <mxPoint x="475" y="460" as="targetPoint" />
            <Array as="points">
              <mxPoint x="340" y="440" />
              <mxPoint x="480" y="440" />
              <mxPoint x="480" y="380" />
            </Array>
          </mxGeometry>
        </mxCell>
        <mxCell id="z1wBFRxJV2j2c12fdlnA-28" value="" style="shape=waypoint;sketch=0;fillStyle=solid;size=6;pointerEvents=1;points=[];fillColor=none;resizable=0;rotatable=0;perimeter=centerPerimeter;snapToPoint=1;" parent="1" vertex="1">
          <mxGeometry x="320" y="390" width="40" height="40" as="geometry" />
        </mxCell>
        <mxCell id="z1wBFRxJV2j2c12fdlnA-29" value="Представляет/Содержит" style="text;html=1;align=center;verticalAlign=middle;resizable=0;points=[];autosize=1;strokeColor=none;fillColor=none;" parent="1" vertex="1">
          <mxGeometry x="335" y="415" width="150" height="20" as="geometry" />
        </mxCell>
        <mxCell id="z1wBFRxJV2j2c12fdlnA-31" value="" style="endArrow=none;html=1;rounded=0;exitX=1;exitY=0.5;exitDx=0;exitDy=0;entryX=0;entryY=0.5;entryDx=0;entryDy=0;" parent="1" source="z1wBFRxJV2j2c12fdlnA-5" target="z1wBFRxJV2j2c12fdlnA-23" edge="1">
          <mxGeometry relative="1" as="geometry">
            <mxPoint x="315" y="460" as="sourcePoint" />
            <mxPoint x="215" y="460" as="targetPoint" />
            <Array as="points">
              <mxPoint x="215" y="460" />
              <mxPoint x="215" y="420" />
              <mxPoint x="215" y="380" />
            </Array>
          </mxGeometry>
        </mxCell>
        <mxCell id="z1wBFRxJV2j2c12fdlnA-33" value="" style="shape=waypoint;sketch=0;fillStyle=solid;size=6;pointerEvents=1;points=[];fillColor=none;resizable=0;rotatable=0;perimeter=centerPerimeter;snapToPoint=1;" parent="1" vertex="1">
          <mxGeometry x="235" y="360" width="40" height="40" as="geometry" />
        </mxCell>
        <mxCell id="z1wBFRxJV2j2c12fdlnA-35" value="" style="endArrow=none;html=1;rounded=0;entryX=0;entryY=0.5;entryDx=0;entryDy=0;exitX=0.5;exitY=1;exitDx=0;exitDy=0;" parent="1" source="z1wBFRxJV2j2c12fdlnA-23" target="z1wBFRxJV2j2c12fdlnA-9" edge="1">
          <mxGeometry relative="1" as="geometry">
            <mxPoint x="315" y="560" as="sourcePoint" />
            <mxPoint x="475" y="470" as="targetPoint" />
            <Array as="points">
              <mxPoint x="315" y="500" />
            </Array>
          </mxGeometry>
        </mxCell>
        <mxCell id="z1wBFRxJV2j2c12fdlnA-36" value="" style="shape=waypoint;sketch=0;fillStyle=solid;size=6;pointerEvents=1;points=[];fillColor=none;resizable=0;rotatable=0;perimeter=centerPerimeter;snapToPoint=1;" parent="1" vertex="1">
          <mxGeometry x="295" y="390" width="40" height="40" as="geometry" />
        </mxCell>
        <mxCell id="z1wBFRxJV2j2c12fdlnA-45" value="" style="endArrow=close;html=1;dashed=1;endSize=12;startArrow=diamondThin;startSize=14;startFill=0;edgeStyle=orthogonalEdgeStyle;rounded=0;entryX=1;entryY=0.5;entryDx=0;entryDy=0;exitX=0.5;exitY=1;exitDx=0;exitDy=0;" parent="1" source="z1wBFRxJV2j2c12fdlnA-7" target="z1wBFRxJV2j2c12fdlnA-7" edge="1">
          <mxGeometry relative="1" as="geometry">
            <mxPoint x="535" y="460" as="sourcePoint" />
            <mxPoint x="725" y="450" as="targetPoint" />
            <Array as="points">
              <mxPoint x="588" y="480" />
              <mxPoint x="665" y="480" />
              <mxPoint x="665" y="380" />
            </Array>
          </mxGeometry>
        </mxCell>
        <mxCell id="z1wBFRxJV2j2c12fdlnA-48" value="" style="shape=waypoint;sketch=0;fillStyle=solid;size=6;pointerEvents=1;points=[];fillColor=none;resizable=0;rotatable=0;perimeter=centerPerimeter;snapToPoint=1;" parent="1" vertex="1">
          <mxGeometry x="630" y="360" width="40" height="40" as="geometry" />
        </mxCell>
        <mxCell id="z1wBFRxJV2j2c12fdlnA-54" value="" style="endArrow=none;html=1;rounded=0;exitDx=0;exitDy=0;startArrow=none;entryX=-0.007;entryY=0.372;entryDx=0;entryDy=0;entryPerimeter=0;" parent="1" source="z1wBFRxJV2j2c12fdlnA-55" target="bO-Ev2rAPcP5Glvwb2sy-35" edge="1">
          <mxGeometry relative="1" as="geometry">
            <mxPoint x="290" y="200" as="sourcePoint" />
            <mxPoint x="260" y="130" as="targetPoint" />
            <Array as="points">
              <mxPoint x="220" y="260" />
              <mxPoint x="220" y="129" />
            </Array>
          </mxGeometry>
        </mxCell>
        <mxCell id="z1wBFRxJV2j2c12fdlnA-55" value="" style="shape=waypoint;sketch=0;fillStyle=solid;size=6;pointerEvents=1;points=[];fillColor=none;resizable=0;rotatable=0;perimeter=centerPerimeter;snapToPoint=1;" parent="1" vertex="1">
          <mxGeometry x="150" y="240" width="40" height="40" as="geometry" />
        </mxCell>
        <mxCell id="z1wBFRxJV2j2c12fdlnA-56" value="" style="endArrow=none;html=1;rounded=0;exitX=1;exitY=0.5;exitDx=0;exitDy=0;entryDx=0;entryDy=0;" parent="1" source="z1wBFRxJV2j2c12fdlnA-15" target="z1wBFRxJV2j2c12fdlnA-55" edge="1">
          <mxGeometry relative="1" as="geometry">
            <mxPoint x="170" y="260" as="sourcePoint" />
            <mxPoint x="265" y="130" as="targetPoint" />
            <Array as="points" />
          </mxGeometry>
        </mxCell>
        <mxCell id="z1wBFRxJV2j2c12fdlnA-58" value="" style="endArrow=none;html=1;rounded=0;entryX=0;entryY=0.5;entryDx=0;entryDy=0;" parent="1" target="z1wBFRxJV2j2c12fdlnA-13" edge="1">
          <mxGeometry relative="1" as="geometry">
            <mxPoint x="295" y="160" as="sourcePoint" />
            <mxPoint x="450" y="280" as="targetPoint" />
            <Array as="points">
              <mxPoint x="295" y="260" />
            </Array>
          </mxGeometry>
        </mxCell>
        <mxCell id="z1wBFRxJV2j2c12fdlnA-59" value="" style="shape=waypoint;sketch=0;fillStyle=solid;size=6;pointerEvents=1;points=[];fillColor=none;resizable=0;rotatable=0;perimeter=centerPerimeter;snapToPoint=1;" parent="1" vertex="1">
          <mxGeometry x="290" y="240" width="40" height="40" as="geometry" />
        </mxCell>
        <mxCell id="z1wBFRxJV2j2c12fdlnA-62" value="" style="endArrow=none;html=1;rounded=0;exitDx=0;exitDy=0;startArrow=none;" parent="1" source="z1wBFRxJV2j2c12fdlnA-63" edge="1">
          <mxGeometry relative="1" as="geometry">
            <mxPoint x="95" y="359.17" as="sourcePoint" />
            <mxPoint x="255" y="359.17" as="targetPoint" />
            <Array as="points">
              <mxPoint x="110" y="360" />
            </Array>
          </mxGeometry>
        </mxCell>
        <mxCell id="z1wBFRxJV2j2c12fdlnA-63" value="" style="shape=waypoint;sketch=0;fillStyle=solid;size=6;pointerEvents=1;points=[];fillColor=none;resizable=0;rotatable=0;perimeter=centerPerimeter;snapToPoint=1;" parent="1" vertex="1">
          <mxGeometry x="90" y="270" width="40" height="40" as="geometry" />
        </mxCell>
        <mxCell id="z1wBFRxJV2j2c12fdlnA-64" value="" style="endArrow=none;html=1;rounded=0;exitX=0.5;exitY=1;exitDx=0;exitDy=0;" parent="1" source="z1wBFRxJV2j2c12fdlnA-15" target="z1wBFRxJV2j2c12fdlnA-63" edge="1">
          <mxGeometry relative="1" as="geometry">
            <mxPoint x="110" y="290" as="sourcePoint" />
            <mxPoint x="255" y="359.1700000000001" as="targetPoint" />
            <Array as="points" />
          </mxGeometry>
        </mxCell>
        <mxCell id="z1wBFRxJV2j2c12fdlnA-65" value="Относится к/&lt;br&gt;Представлено в" style="text;html=1;align=center;verticalAlign=middle;resizable=0;points=[];autosize=1;strokeColor=none;fillColor=none;" parent="1" vertex="1">
          <mxGeometry x="120" y="325" width="110" height="30" as="geometry" />
        </mxCell>
        <mxCell id="z1wBFRxJV2j2c12fdlnA-66" value="Содержит подкатегорию/&lt;br&gt;Входит в надкатегорию" style="text;html=1;align=center;verticalAlign=middle;resizable=0;points=[];autosize=1;strokeColor=none;fillColor=none;" parent="1" vertex="1">
          <mxGeometry x="670" y="405" width="150" height="30" as="geometry" />
        </mxCell>
        <mxCell id="z1wBFRxJV2j2c12fdlnA-67" value="" style="endArrow=none;html=1;rounded=0;entryX=0.46;entryY=0.555;entryDx=0;entryDy=0;entryPerimeter=0;" parent="1" target="z1wBFRxJV2j2c12fdlnA-68" edge="1">
          <mxGeometry relative="1" as="geometry">
            <mxPoint x="390" y="150" as="sourcePoint" />
            <mxPoint x="545" y="150" as="targetPoint" />
            <Array as="points">
              <mxPoint x="440" y="150" />
              <mxPoint x="440" y="240" />
            </Array>
          </mxGeometry>
        </mxCell>
        <mxCell id="z1wBFRxJV2j2c12fdlnA-68" value="" style="shape=waypoint;sketch=0;fillStyle=solid;size=6;pointerEvents=1;points=[];fillColor=none;resizable=0;rotatable=0;perimeter=centerPerimeter;snapToPoint=1;" parent="1" vertex="1">
          <mxGeometry x="570" y="220" width="40" height="40" as="geometry" />
        </mxCell>
        <mxCell id="z1wBFRxJV2j2c12fdlnA-70" value="Принадлежит/&lt;br&gt;Издало" style="text;html=1;align=center;verticalAlign=middle;resizable=0;points=[];autosize=1;strokeColor=none;fillColor=none;" parent="1" vertex="1">
          <mxGeometry x="295" y="500" width="90" height="30" as="geometry" />
        </mxCell>
        <mxCell id="z1wBFRxJV2j2c12fdlnA-72" value="" style="endArrow=none;html=1;dashed=1;rounded=0;exitX=0.75;exitY=1;exitDx=0;exitDy=0;entryX=1;entryY=0.5;entryDx=0;entryDy=0;" parent="1" source="z1wBFRxJV2j2c12fdlnA-13" target="z1wBFRxJV2j2c12fdlnA-23" edge="1">
          <mxGeometry relative="1" as="geometry">
            <mxPoint x="380" y="370" as="sourcePoint" />
            <mxPoint x="540" y="370" as="targetPoint" />
            <Array as="points">
              <mxPoint x="396" y="380" />
            </Array>
          </mxGeometry>
        </mxCell>
        <mxCell id="z1wBFRxJV2j2c12fdlnA-73" value="" style="shape=waypoint;sketch=0;fillStyle=solid;size=6;pointerEvents=1;points=[];fillColor=none;resizable=0;rotatable=0;perimeter=centerPerimeter;snapToPoint=1;" parent="1" vertex="1">
          <mxGeometry x="355" y="360" width="40" height="40" as="geometry" />
        </mxCell>
        <mxCell id="bO-Ev2rAPcP5Glvwb2sy-47" value="" style="endArrow=none;html=1;dashed=1;rounded=0;exitX=1;exitY=0.5;exitDx=0;exitDy=0;entryX=0.625;entryY=0.515;entryDx=0;entryDy=0;entryPerimeter=0;" edge="1" parent="1" source="z1wBFRxJV2j2c12fdlnA-13" target="bO-Ev2rAPcP5Glvwb2sy-48">
          <mxGeometry relative="1" as="geometry">
            <mxPoint x="300" y="290" as="sourcePoint" />
            <mxPoint x="663" y="280" as="targetPoint" />
            <Array as="points">
              <mxPoint x="480" y="260" />
              <mxPoint x="480" y="300" />
              <mxPoint x="665" y="300" />
            </Array>
          </mxGeometry>
        </mxCell>
        <mxCell id="bO-Ev2rAPcP5Glvwb2sy-48" value="" style="shape=waypoint;sketch=0;fillStyle=solid;size=6;pointerEvents=1;points=[];fillColor=none;resizable=0;rotatable=0;perimeter=centerPerimeter;snapToPoint=1;" vertex="1" parent="1">
          <mxGeometry x="645" y="260" width="40" height="40" as="geometry" />
        </mxCell>
      </root>
    </mxGraphModel>
  </diagram>
</mxfile>
